<svg xmlns="http://www.w3.org/2000/svg" width="512" height="384" viewBox="0 0 512 384" role="img"><title>Folding steel wrestling chair</title><defs>
  <linearGradient id="steel" x1="0" y1="0" x2=".8" y2="1"><stop stop-color="#e3ecf3"/><stop offset=".26" stop-color="#778794"/><stop offset=".48" stop-color="#c4d2dc"/><stop offset=".53" stop-color="#566779"/><stop offset="1" stop-color="#262f3d"/></linearGradient>
  <linearGradient id="gold" x1="0" y1="0" x2=".75" y2="1"><stop stop-color="#fff2b4"/><stop offset=".28" stop-color="#e6b958"/><stop offset=".53" stop-color="#916028"/><stop offset=".7" stop-color="#ebc56d"/><stop offset="1" stop-color="#7f4d20"/></linearGradient>
  <linearGradient id="red" x1="0" y1="0" x2="1" y2="1"><stop stop-color="#ed5560"/><stop offset=".5" stop-color="#aa273c"/><stop offset="1" stop-color="#3a1424"/></linearGradient>
  <linearGradient id="leather" x1="0" y1="0" x2=".5" y2="1"><stop stop-color="#3c4552"/><stop offset=".4" stop-color="#111824"/><stop offset="1" stop-color="#030711"/></linearGradient>
  <linearGradient id="wood" x1="0" y1="0" x2="1" y2="1"><stop stop-color="#e1b782"/><stop offset=".45" stop-color="#a56e40"/><stop offset="1" stop-color="#593720"/></linearGradient>
  <filter id="shadow" x="-35%" y="-35%" width="180%" height="180%"><feDropShadow dx="0" dy="13" stdDeviation="9" flood-color="#000" flood-opacity=".55"/></filter>
</defs><g stroke="#0a0c14" stroke-width="5" stroke-linejoin="round" stroke-linecap="round" filter="url(#shadow)"><g transform="rotate(-9 256 194)"><path d="M168 76l13 173-40 72M337 77l-10 175 41 67M184 200l155 109M329 197L173 321" fill="none" stroke="#141b27" stroke-width="20"/><path d="M168 76l13 173-40 72M337 77l-10 175 41 67M184 200l155 109M329 197L173 321" fill="none" stroke="url(#steel)" stroke-width="12"/><rect x="147" y="46" width="205" height="111" rx="19" fill="url(#steel)"/><rect x="164" y="62" width="171" height="72" rx="13" fill="url(#leather)"/><path d="M153 204l171-3 35 51-196 12-22-26z" fill="url(#steel)"/><path d="M159 212l157-3 23 34-170 10-16-20z" fill="#344353"/><path d="M183 70h125M171 218l139-3" stroke="#bdc9d2" stroke-width="3" opacity=".55"/><circle cx="183" cy="184" r="5" fill="#c2cdd4" stroke="#273240" stroke-width="2"/><path d="M180.5 184h5" stroke="#394350" stroke-width="1.5"/><circle cx="327" cy="183" r="5" fill="#c2cdd4" stroke="#273240" stroke-width="2"/><path d="M324.5 183h5" stroke="#394350" stroke-width="1.5"/><path d="M138 321h11m19 1h13m151-9h12m18 9h12" stroke="#10151e" stroke-width="11"/></g></g></svg>