<svg xmlns="http://www.w3.org/2000/svg" width="512" height="384" viewBox="0 0 512 384" role="img"><title>Padded folding corner stool</title><defs>
  <linearGradient id="steel" x1="0" y1="0" x2=".8" y2="1"><stop stop-color="#e3ecf3"/><stop offset=".26" stop-color="#778794"/><stop offset=".48" stop-color="#c4d2dc"/><stop offset=".53" stop-color="#566779"/><stop offset="1" stop-color="#262f3d"/></linearGradient>
  <linearGradient id="gold" x1="0" y1="0" x2=".75" y2="1"><stop stop-color="#fff2b4"/><stop offset=".28" stop-color="#e6b958"/><stop offset=".53" stop-color="#916028"/><stop offset=".7" stop-color="#ebc56d"/><stop offset="1" stop-color="#7f4d20"/></linearGradient>
  <linearGradient id="red" x1="0" y1="0" x2="1" y2="1"><stop stop-color="#ed5560"/><stop offset=".5" stop-color="#aa273c"/><stop offset="1" stop-color="#3a1424"/></linearGradient>
  <linearGradient id="leather" x1="0" y1="0" x2=".5" y2="1"><stop stop-color="#3c4552"/><stop offset=".4" stop-color="#111824"/><stop offset="1" stop-color="#030711"/></linearGradient>
  <linearGradient id="wood" x1="0" y1="0" x2="1" y2="1"><stop stop-color="#e1b782"/><stop offset=".45" stop-color="#a56e40"/><stop offset="1" stop-color="#593720"/></linearGradient>
  <filter id="shadow" x="-35%" y="-35%" width="180%" height="180%"><feDropShadow dx="0" dy="13" stdDeviation="9" flood-color="#000" flood-opacity=".55"/></filter>
</defs><g stroke="#0a0c14" stroke-width="5" stroke-linejoin="round" stroke-linecap="round" filter="url(#shadow)"><path d="M169 160l142 162M324 166L186 324M189 168l158 151M349 165L210 322" stroke="#141a27" stroke-width="16"/><path d="M169 160l142 162M324 166L186 324M189 168l158 151M349 165L210 322" stroke="url(#steel)" stroke-width="10"/><path d="M154 113l140-33 73 45v50l-139 37-74-48z" fill="url(#leather)"/><path d="M154 114l73 42 141-30v-16l-76-37-138 28z" fill="url(#red)"/><path d="M163 116l65 33 124-26" fill="none" stroke="#ee8890" stroke-width="3"/><circle cx="260" cy="251" r="9" fill="#c2cdd4" stroke="#273240" stroke-width="2"/><path d="M255.5 251h9" stroke="#394350" stroke-width="1.5"/><path d="M176 325h19m108 0h19m18-3h17m-155 4h18" stroke="#0e1420" stroke-width="13"/></g></svg>