<svg xmlns="http://www.w3.org/2000/svg" width="512" height="384" viewBox="0 0 512 384" role="img"><title>Breakaway wrestling table</title><defs>
  <linearGradient id="steel" x1="0" y1="0" x2=".8" y2="1"><stop stop-color="#e3ecf3"/><stop offset=".26" stop-color="#778794"/><stop offset=".48" stop-color="#c4d2dc"/><stop offset=".53" stop-color="#566779"/><stop offset="1" stop-color="#262f3d"/></linearGradient>
  <linearGradient id="gold" x1="0" y1="0" x2=".75" y2="1"><stop stop-color="#fff2b4"/><stop offset=".28" stop-color="#e6b958"/><stop offset=".53" stop-color="#916028"/><stop offset=".7" stop-color="#ebc56d"/><stop offset="1" stop-color="#7f4d20"/></linearGradient>
  <linearGradient id="red" x1="0" y1="0" x2="1" y2="1"><stop stop-color="#ed5560"/><stop offset=".5" stop-color="#aa273c"/><stop offset="1" stop-color="#3a1424"/></linearGradient>
  <linearGradient id="leather" x1="0" y1="0" x2=".5" y2="1"><stop stop-color="#3c4552"/><stop offset=".4" stop-color="#111824"/><stop offset="1" stop-color="#030711"/></linearGradient>
  <linearGradient id="wood" x1="0" y1="0" x2="1" y2="1"><stop stop-color="#e1b782"/><stop offset=".45" stop-color="#a56e40"/><stop offset="1" stop-color="#593720"/></linearGradient>
  <filter id="shadow" x="-35%" y="-35%" width="180%" height="180%"><feDropShadow dx="0" dy="13" stdDeviation="9" flood-color="#000" flood-opacity=".55"/></filter>
</defs><g stroke="#0a0c14" stroke-width="5" stroke-linejoin="round" stroke-linecap="round" filter="url(#shadow)"><path d="M129 178l7 117 28 18M350 158l14 125 32 9M205 172l8 113m-1-85 148 57" fill="none" stroke="#101720" stroke-width="15"/><path d="M129 178l7 117 28 18M350 158l14 125 32 9M205 172l8 113m-1-85 148 57" fill="none" stroke="url(#steel)" stroke-width="9"/><path d="M81 139l216-60 139 86-228 77-127-79z" fill="url(#wood)"/><path d="M83 140l125 83 226-62v19l-227 66-126-82z" fill="#3d281c"/><path d="M105 139l196-47m-171 62 197-44m-166 65 191-47m-160 68 189-48" stroke="#734928" stroke-width="3" opacity=".6"/><path d="M236 102l-12 55 19 30-22 40" fill="none" stroke="#59371f" stroke-width="3"/></g></svg>